# xmcd
#
# Track frame offsets:
#	180
#	10158
#	21070
#	34178
#	45057
#	53903
#	64359
#	75381
#	87853
#	98453
#	110156
#	124119
#	136583
#	148351
#	159429
#	171592
#	184115
#	196006
#	206834
#	214484
#	226760
#	241192
#
# Disc length: 3352 seconds
#
# Revision: 1
# Processed by: cddbd v1.5.2PL0 Copyright (c) Steve Scherf et al.
# Submitted via: audiograbber 1.83.01
#
DISCID=260d1616
DTITLE=Charlie Rich - Lonely Weekends - A Time For Tears
DYEAR=1959
DGENRE=Oldies
TTITLE0=Lonely Weekends
TTITLE1=Unchained Melody
TTITLE2=Stay
TTITLE3=C.C. Rider
TTITLE4=Rebound
TTITLE5=That's How Much I Love You
TTITLE6=Who Will The Next Fool Be
TTITLE7=Big Man
TTITLE8=I Need Your Love
TTITLE9=Break-Up
TTITLE10=Sittin' And Thinkin'
TTITLE11=Gentle As A Lamb
TTITLE12=The Wedding's Over
TTITLE13=You're Gonna Be Waiting
TTITLE14=Midnight Blues
TTITLE15=My Heart Cries For You
TTITLE16=Goodbye Mary Ann
TTITLE17=Finally Found Out
TTITLE18=Baby I Need You
TTITLE19=It's Too Late
TTITLE20=I've Lost My Heart To You
TTITLE21=My Baby Done Left Me
EXTD=
EXTT0=
EXTT1=
EXTT2=
EXTT3=
EXTT4=
EXTT5=
EXTT6=
EXTT7=
EXTT8=
EXTT9=
EXTT10=
EXTT11=
EXTT12=
EXTT13=
EXTT14=
EXTT15=
EXTT16=
EXTT17=
EXTT18=
EXTT19=
EXTT20=
EXTT21=
PLAYORDER=
